<svg xmlns="http://www.w3.org/2000/svg" width="714" height="493" viewBox="0 0 714 493" version="1.1">
	<path d="M 336 17.262 C 317.964 25.392, 112.827 127.016, 105.378 131.512 C 103.371 132.723, 102.165 133.984, 102.698 134.314 C 103.232 134.643, 107.751 134.490, 112.742 133.974 C 117.733 133.458, 128.720 132.971, 137.158 132.892 L 152.500 132.750 199 109.716 C 224.575 97.048, 255.400 81.861, 267.500 75.968 C 279.600 70.075, 300.300 59.953, 313.500 53.476 C 328.078 46.322, 338.678 41.703, 340.500 41.710 C 342.215 41.717, 351.211 45.470, 361.500 50.472 C 371.400 55.285, 383.100 60.922, 387.500 62.999 C 391.900 65.076, 402.250 70.020, 410.500 73.986 C 424.405 80.670, 446.985 91.290, 460 97.267 C 463.025 98.656, 478.550 106.193, 494.500 114.016 C 510.450 121.839, 525.525 129.166, 528 130.297 C 531.932 132.094, 535.969 132.505, 560 133.555 C 575.125 134.216, 589.638 135.087, 592.250 135.492 C 599.034 136.542, 598.373 134.608, 590.750 131.103 C 583.933 127.968, 556.369 114.961, 535 104.795 C 517.714 96.571, 508.279 92.172, 494 85.677 L 482.500 80.446 481.872 66.473 C 481.527 58.788, 481.189 45.188, 481.122 36.250 L 481 20 451.500 20 L 422 20 422 35.031 C 422 46.823, 421.705 50.176, 420.633 50.588 C 419.880 50.876, 407.843 45.861, 393.883 39.443 C 358.268 23.070, 341.979 15.989, 340.109 16.068 C 339.224 16.105, 337.375 16.642, 336 17.262 M 337 52.270 C 331.356 54.832, 248.772 95.392, 211.785 113.769 C 176.106 131.495, 166.455 136.876, 174.750 134.419 C 176.262 133.970, 252.839 133.467, 344.919 133.299 C 437 133.132, 512.525 132.808, 512.754 132.579 C 513.260 132.073, 494.098 122.781, 460 106.999 C 431.906 93.995, 420.330 88.543, 380.620 69.616 C 372.986 65.977, 366.613 63, 366.458 63 C 366.303 63, 360.472 60.300, 353.500 57 C 346.528 53.700, 340.526 51.030, 340.162 51.068 C 339.798 51.105, 338.375 51.646, 337 52.270 M 125.050 143.086 C 99.747 145.523, 76.214 153.927, 59.500 166.497 C 19.882 196.290, 4.490 242.592, 19.828 285.828 C 27.646 307.865, 47.362 329.678, 69.506 340.790 C 88.715 350.430, 108.813 355.289, 129.500 355.297 C 150.932 355.305, 165.659 352.664, 184.072 345.510 C 199.291 339.598, 198 339.146, 198 350.383 C 198 355.673, 198.263 360, 198.583 360 C 203.181 360, 236.598 349.097, 246.500 344.366 L 252.500 341.500 252.485 290.500 C 252.476 262.450, 252.153 238.713, 251.766 237.750 C 251.110 236.118, 247.872 236, 203.674 236 L 156.286 236 155.605 245.893 C 155.230 251.335, 155.232 260.560, 155.609 266.393 L 156.295 277 172.147 277 L 188 277 188 284.465 C 188 293.305, 188.401 292.949, 174.483 296.479 C 159.737 300.220, 150.004 301.323, 137.131 300.715 C 101.025 299.006, 78.986 279.839, 79.006 250.161 C 79.015 235.488, 82.849 226.111, 92.980 215.982 C 105.249 203.717, 121.095 198.306, 141.890 199.282 C 157.258 200.002, 166.604 202.592, 182.500 210.534 C 189.650 214.106, 195.987 217.022, 196.583 217.014 C 198.204 216.993, 235.452 178.015, 235.806 175.969 C 236.025 174.710, 233.579 172.508, 227.282 168.297 C 205.288 153.584, 181.187 145.698, 150 143.009 C 137.353 141.918, 137.174 141.919, 125.050 143.086 M 581.825 146.981 C 560.250 149.074, 544.304 154.286, 525.272 165.462 C 517.684 169.918, 503.917 182.710, 497.249 191.500 C 491.332 199.300, 483.721 215.271, 480.808 226 C 478.821 233.317, 478.500 236.866, 478.500 251.500 C 478.500 271.767, 480.574 282.006, 487.613 296.500 C 502.185 326.501, 533.622 349.222, 570 356.046 C 579.752 357.875, 607.734 357.655, 618 355.669 C 637.051 351.982, 653.094 345.085, 667.096 334.560 C 676.097 327.793, 692.854 311.510, 695.062 307.383 C 696.673 304.374, 697.099 304.708, 677.500 293.649 C 669.250 288.994, 658.904 283.115, 654.509 280.584 L 646.518 275.983 640.009 282.589 C 632.797 289.909, 624.993 294.919, 615.667 298.214 C 606.480 301.460, 586.331 301.448, 576.611 298.192 C 561.382 293.089, 549.403 281.832, 543.763 267.322 C 541.862 262.430, 541.500 259.583, 541.500 249.500 C 541.500 238.017, 541.639 237.217, 544.715 230.931 C 548.723 222.740, 554.416 216.202, 562.359 210.666 C 572.930 203.298, 581.302 200.902, 596.305 200.949 C 614.183 201.005, 624.244 205.172, 636.800 217.721 C 644.156 225.072, 645.335 225.891, 647.155 224.917 C 648.285 224.312, 653.550 221.008, 658.855 217.573 C 664.160 214.138, 674.237 207.780, 681.250 203.445 C 690.006 198.031, 694 194.993, 694 193.746 C 694 190.868, 677.657 174.683, 668.678 168.669 C 642.249 150.967, 613.844 143.873, 581.825 146.981 M 296.503 152.761 C 292.105 152.943, 288.201 153.410, 287.827 153.797 C 286.891 154.765, 286.440 349.284, 287.370 350.790 C 287.930 351.696, 296.263 352, 320.582 352 L 353.047 352 352.975 315.982 C 352.936 296.173, 353.183 279.513, 353.524 278.961 C 353.922 278.318, 367.420 277.982, 391.193 278.025 C 411.570 278.061, 428.478 277.855, 428.766 277.567 C 429.054 277.279, 429.337 265.671, 429.395 251.772 L 429.500 226.500 392 226.500 C 371.375 226.500, 353.908 226.118, 353.185 225.651 C 352.221 225.028, 351.937 222.297, 352.121 215.410 C 352.258 210.244, 352.649 205.568, 352.989 205.018 C 353.386 204.375, 373.275 203.925, 408.554 203.759 L 463.500 203.500 464.250 195.226 C 464.662 190.675, 464.662 179.200, 464.250 169.726 L 463.500 152.500 384 152.464 C 340.275 152.445, 300.902 152.578, 296.503 152.761 M 16.672 379.471 C 15.349 380.794, 15.167 381.567, 15.985 382.386 C 17.314 383.715, 333.799 385.097, 553.486 384.732 C 677.014 384.527, 693.504 384.324, 693.735 383 C 693.879 382.175, 693.625 380.924, 693.171 380.219 C 692.503 379.185, 627.624 378.817, 355.408 378.305 C 31.807 377.696, 18.400 377.742, 16.672 379.471 M 149.250 405.727 C 137.084 406.031, 132.957 406.971, 138 408.290 C 139.914 408.790, 140 409.654, 140 428.284 C 140 447.362, 139.955 447.787, 137.750 449.269 C 136.512 450.101, 135.741 451.034, 136.036 451.344 C 136.331 451.653, 143.531 451.981, 152.036 452.072 C 167.453 452.237, 167.504 452.230, 168.705 449.827 C 169.368 448.501, 170.213 445.410, 170.583 442.958 C 171.347 437.898, 170.203 438.271, 167.105 444.090 C 165.068 447.916, 160.875 449.854, 154.441 449.944 C 147.694 450.037, 146.866 448.782, 147.206 438.981 L 147.500 430.500 153.870 430.199 C 159.372 429.939, 160.438 430.180, 161.689 431.966 C 163.814 435.001, 164.979 433.542, 163.863 429.242 C 162.074 422.353, 162.084 422.362, 159.695 425.358 C 157.728 427.825, 156.937 428.095, 152.493 427.815 L 147.500 427.500 147.214 417.750 L 146.928 408 154.464 408 C 162.391 408, 162.554 408.079, 166.965 414 C 169.615 417.556, 170.355 416.013, 168.713 410.356 C 167.096 404.788, 168.978 405.235, 149.250 405.727 M 533.500 406.617 C 525.001 411.207, 520.843 418.466, 520.758 428.856 C 520.690 437.245, 522.978 442.969, 528.176 447.419 C 531.953 450.652, 538.295 453.006, 543.193 452.994 C 550.014 452.978, 558.197 448.241, 560.114 443.200 C 561.644 439.176, 560.288 439.422, 556.268 443.897 C 553.550 446.922, 551.470 448.252, 548.806 448.667 C 540.419 449.975, 533.357 446.197, 529.880 438.541 C 527.527 433.362, 527.342 421.188, 529.546 416.544 C 534.955 405.147, 548.695 403.756, 555.712 413.895 C 560.139 420.293, 561.250 419.025, 558.441 410.782 C 556.977 406.485, 556.658 406.202, 553.191 406.124 C 551.161 406.079, 546.575 405.806, 543 405.519 C 538.129 405.128, 535.748 405.403, 533.500 406.617 M 306.250 406.662 C 304.068 407.543, 304.778 411.980, 307.250 412.914 C 310.034 413.965, 313 412.547, 313 410.165 C 313 406.853, 309.841 405.213, 306.250 406.662 M 440 407 C 440 407.550, 440.627 408, 441.393 408 C 443.707 408, 444 410.409, 444 429.460 C 444 447.319, 443.946 447.792, 441.750 449.269 C 440.512 450.101, 439.727 451.021, 440.006 451.313 C 440.284 451.605, 447.163 451.992, 455.293 452.172 L 470.074 452.500 471.537 447.568 C 473.167 442.075, 473.405 439, 472.201 439 C 471.761 439, 470.856 440.511, 470.188 442.357 C 469.520 444.203, 468.142 446.467, 467.124 447.388 C 464.732 449.553, 456.013 450.613, 453.159 449.085 C 451.060 447.962, 451 447.387, 451 428.371 C 451 409.654, 451.086 408.790, 453 408.290 C 457.364 407.148, 454.606 406, 447.500 406 C 443.167 406, 440 406.422, 440 407 M 481 406.883 C 481 407.369, 481.900 408.002, 483 408.290 C 484.914 408.790, 485 409.654, 485 428.284 C 485 447.362, 484.955 447.787, 482.750 449.269 C 481.512 450.101, 480.731 451.024, 481.014 451.322 C 481.297 451.619, 488.272 451.962, 496.514 452.084 L 511.500 452.307 513.224 445.961 C 514.971 439.528, 514.699 436.958, 512.633 440.371 C 508.427 447.316, 507.270 448.479, 503.733 449.316 C 501.571 449.827, 498.422 449.826, 496.250 449.313 L 492.500 448.427 492.215 430.463 C 491.911 411.229, 492.233 408, 494.460 408 C 495.242 408, 496.160 407.550, 496.500 407 C 496.892 406.365, 494.177 406, 489.059 406 C 484.627 406, 481 406.398, 481 406.883 M 218.133 417.500 C 216.748 419.846, 215.314 421.011, 213.784 421.033 L 211.500 421.067 213.750 422.944 C 215.842 424.689, 216 425.621, 216 436.236 C 216 447.070, 216.125 447.769, 218.460 449.963 C 220.495 451.874, 221.645 452.177, 225.104 451.713 C 228.865 451.208, 230.942 449.818, 230.985 447.775 C 230.993 447.376, 229.922 447.460, 228.603 447.961 C 224.095 449.675, 222.757 447.398, 222.246 437.143 C 221.623 424.651, 222.122 423, 226.519 423 C 231.197 423, 230.976 421.202, 226.250 420.810 C 223.330 420.569, 222.468 420.057, 222.356 418.500 C 222.277 417.400, 222.165 415.938, 222.106 415.250 C 221.914 412.989, 220.232 413.941, 218.133 417.500 M 247.619 421.003 C 235.815 424.665, 233.159 442.774, 243.396 449.788 C 249.240 453.793, 261.216 452.202, 263.970 447.055 C 265.861 443.522, 265.033 443.038, 261.360 445.530 C 254.658 450.079, 246.934 448.084, 244.021 441.052 C 241.808 435.709, 242.795 435.102, 254.205 434.785 C 264.148 434.510, 264.511 434.420, 264.832 432.155 C 265.327 428.657, 263.065 424.085, 260.075 422.539 C 256.351 420.613, 251.002 419.954, 247.619 421.003 M 288.308 421.204 C 284.786 422.891, 284.536 425.043, 287.942 424.362 C 290.506 423.849, 290.865 424.111, 291.490 426.953 C 292.040 429.459, 292.632 430.051, 294.342 429.807 C 295.937 429.580, 296.579 428.695, 296.801 426.415 C 297.244 421.879, 292.709 419.097, 288.308 421.204 M 334.395 420.949 C 327.420 422.609, 322.801 428.499, 322.705 435.853 C 322.570 446.250, 329.385 452.574, 339.904 451.813 C 346.721 451.320, 350.975 448.679, 353.490 443.379 C 355.676 438.773, 355.094 430.944, 352.285 427.176 C 348.469 422.055, 340.865 419.409, 334.395 420.949 M 379 420.719 C 376.990 421.445, 374 424.103, 374 425.163 C 374 425.633, 374.840 425.492, 375.868 424.851 C 378.366 423.291, 380.770 424.350, 381.172 427.189 C 381.660 430.626, 386.387 430.467, 386.792 426.999 C 387.286 422.780, 382.957 419.291, 379 420.719 M 399.500 420.719 C 395.746 421.621, 393 425.113, 393 428.983 C 393 434.171, 394.540 435.683, 403 438.799 C 409.652 441.249, 410.536 441.875, 410.822 444.341 C 411.293 448.405, 409.440 450, 404.246 450 C 400.359 450, 399.265 449.500, 396.322 446.380 C 392.261 442.074, 391.196 442.522, 393.250 447.671 L 394.749 451.428 402.746 451.776 C 410.042 452.093, 410.992 451.911, 413.572 449.692 C 415.743 447.824, 416.400 446.386, 416.400 443.500 C 416.400 438.820, 413.346 435.927, 405.811 433.468 C 399.077 431.271, 398 430.385, 398 427.047 C 398 423.645, 401.643 421.443, 405.619 422.441 C 407.145 422.823, 409.879 424.713, 411.696 426.640 C 414.809 429.940, 414.999 430.008, 414.986 427.821 C 414.957 422.879, 413.911 421.090, 411.146 421.256 C 409.691 421.344, 406.925 421.151, 405 420.827 C 403.075 420.503, 400.600 420.454, 399.500 420.719 M 177 421.527 C 177 421.816, 179.475 425.054, 182.500 428.721 C 185.525 432.389, 188 435.771, 188 436.237 C 188 437.678, 179.795 448.039, 177.815 449.099 C 174.917 450.650, 176.659 452, 181.559 452 C 185.922 452, 187.452 450.771, 184.500 449.638 C 182.181 448.748, 182.702 446.671, 186.250 442.655 C 189.759 438.683, 190.386 438.767, 193.798 443.654 C 196.114 446.973, 196.688 450, 195 450 C 194.450 450, 194 450.450, 194 451 C 194 452.051, 206.232 452.435, 207.251 451.415 C 207.573 451.094, 206.267 449.181, 204.348 447.165 C 202.430 445.149, 200.120 442.262, 199.215 440.750 C 198.310 439.238, 197.216 438, 196.784 438 C 196.353 438, 196 437.103, 196 436.008 C 196 433.898, 198.412 430.575, 203.750 425.328 C 205.537 423.572, 207 421.879, 207 421.567 C 207 421.255, 204.680 421, 201.845 421 C 196.914 421, 196.762 421.080, 198.345 422.829 C 199.255 423.835, 200 424.990, 200 425.395 C 200 426.529, 194.867 433, 193.968 433 C 193.531 433, 191.770 431.092, 190.055 428.760 C 187.343 425.072, 187.136 424.374, 188.468 423.400 C 191.126 421.456, 190.181 421, 183.500 421 C 179.925 421, 177 421.237, 177 421.527 M 275.750 422.162 C 272.696 423.278, 272.223 424.488, 274.500 425.362 C 276.762 426.230, 276.704 448.516, 274.437 449.386 C 271.187 450.633, 274.357 452, 280.500 452 C 287.172 452, 289.834 450.677, 285.402 449.565 L 282.817 448.916 283.132 437.515 C 283.305 431.244, 283.122 425.788, 282.724 425.390 C 282.326 424.992, 282 423.842, 282 422.833 C 282 420.796, 280.061 420.588, 275.750 422.162 M 305.750 422.144 C 302.802 423.240, 302.032 425, 304.500 425 C 306.722 425, 306.727 448.784, 304.506 449.636 C 301.580 450.759, 304.202 452, 309.500 452 C 314.984 452, 317.236 450.791, 314.552 449.289 C 313.369 448.627, 313.003 445.669, 312.781 434.977 C 312.517 422.334, 312.376 421.488, 310.500 421.310 C 309.400 421.206, 307.262 421.581, 305.750 422.144 M 364.750 422.299 C 361.495 423.585, 361.248 424.570, 364 425.290 C 365.847 425.773, 366 426.654, 366 436.784 C 366 445.316, 365.667 448.032, 364.500 449 C 361.714 451.313, 362.974 452, 370 452 C 377.201 452, 378.686 451.214, 374.750 449.487 C 372.594 448.541, 372.497 447.977, 372.438 435.959 C 372.404 429.061, 372.040 422.874, 371.629 422.209 C 370.744 420.778, 368.527 420.807, 364.750 422.299 M 247.888 423.500 C 244.975 425.083, 242.451 430.127, 243.372 432.526 C 243.854 433.783, 245.386 434.031, 251.225 433.794 C 257.324 433.547, 258.534 433.209, 258.828 431.671 C 259.382 428.769, 257.089 424.362, 254.385 423.130 C 251.324 421.735, 251.113 421.747, 247.888 423.500 M 331.982 424.814 C 327.360 428.556, 328.411 441.467, 333.808 447.250 C 338.781 452.579, 346.648 450.095, 348.416 442.637 C 349.419 438.405, 347.216 429.410, 344.338 425.990 C 342.357 423.636, 341.014 423, 338.022 423 C 335.842 423, 333.267 423.773, 331.982 424.814 M 346 476 C 345.099 476.582, 344.975 476.975, 345.691 476.985 C 346.346 476.993, 347.160 476.550, 347.500 476 C 348.267 474.758, 347.921 474.758, 346 476" stroke="none" fill="#000000" fill-rule="evenodd"/>
</svg>